<svg xmlns="http://www.w3.org/2000/svg" width="202" height="188" viewBox="0 0 202 188" version="1.1"><path d="M 110.500 13.068 C 109.400 13.503, 93.965 13.891, 76.200 13.930 C 50.197 13.986, 43.360 14.280, 41.125 15.435 C 36.897 17.622, 32.142 23.397, 24.177 36.020 C 20.193 42.334, 14.647 50.703, 11.853 54.617 L 6.774 61.734 7.905 119.491 C 8.527 151.258, 9.279 177.643, 9.577 178.124 C 9.875 178.606, 16.954 179, 25.309 179 C 40.476 179.001, 40.510 178.996, 46.864 175.750 C 60.785 168.640, 84.192 147.174, 97.451 129.358 C 104.740 119.564, 111 108.016, 111 104.366 L 111 102 80 102 L 49 102 49 83.630 L 49 65.260 62.750 54.172 C 70.313 48.073, 83.475 37.414, 92 30.485 C 100.525 23.555, 108.908 17.282, 110.628 16.545 C 112.348 15.807, 114.033 14.755, 114.372 14.207 C 115.236 12.810, 112.894 12.121, 110.500 13.068 M 147.154 15.531 C 142.641 17.491, 128.177 28.798, 119.115 37.449 C 107.539 48.502, 93.430 66.365, 88.940 75.652 C 86.773 80.135, 85 84.496, 85 85.343 C 85 86.189, 84.550 87.160, 84 87.500 C 80.599 89.602, 85.456 90, 114.500 90 L 146 90 146 108.396 L 146 126.792 140.750 130.138 C 137.863 131.978, 132.350 136.218, 128.500 139.559 C 124.650 142.900, 119.475 147.182, 117 149.074 C 111.562 153.232, 94.544 167.523, 90.891 171 C 89.447 172.375, 86.630 174.358, 84.632 175.407 C 78.017 178.882, 79.935 179.517, 96.249 179.256 C 104.637 179.122, 120.050 178.878, 130.500 178.713 C 156.152 178.309, 156.192 178.289, 168.717 159.500 C 172.384 154, 177.573 146.477, 180.249 142.782 C 182.925 139.087, 186.167 133.462, 187.454 130.282 C 189.601 124.978, 189.719 123.798, 188.880 116 C 188.377 111.325, 187.695 86.463, 187.365 60.750 L 186.763 14 168.632 14.039 C 155.047 14.068, 149.661 14.443, 147.154 15.531 M 47.275 16.971 C 45.501 17.392, 43.026 18.412, 41.775 19.236 C 40.524 20.060, 32.810 30.747, 24.633 42.984 L 9.766 65.234 10.633 120.367 L 11.500 175.500 26.365 175.777 C 40.935 176.049, 41.323 176.001, 45.865 173.359 C 60.370 164.921, 84.389 142.712, 96.003 127 C 101.948 118.958, 107.997 107.989, 107.999 105.250 C 108 104.277, 101.234 104, 77.500 104 L 47 104 47.035 83.750 L 47.070 63.500 75.528 40.500 C 91.179 27.850, 103.988 17.163, 103.992 16.750 C 104.002 15.769, 51.473 15.974, 47.275 16.971 M 151.697 17.965 C 143.164 22.258, 130.732 32.268, 117.500 45.500 C 102.535 60.465, 93.173 72.566, 89.423 81.789 L 87.102 87.500 118.051 87.764 L 149 88.028 149 107.898 L 149 127.767 145.221 131.134 C 143.142 132.985, 130.053 143.725, 116.133 155 L 90.823 175.500 118.982 175.766 C 144.789 176.009, 147.498 175.873, 151.424 174.137 C 155.293 172.425, 157.162 170.069, 170.753 149.770 L 185.800 127.298 185.292 91.899 C 185.014 72.430, 184.496 47.500, 184.143 36.500 L 183.500 16.500 169.500 16.276 C 157.415 16.082, 154.980 16.313, 151.697 17.965" stroke="none" fill="#22ecf3" fill-rule="evenodd"/><path d="M 47.275 16.971 C 45.501 17.392, 43.026 18.412, 41.775 19.236 C 40.524 20.060, 32.810 30.747, 24.633 42.984 L 9.766 65.234 10.633 120.367 L 11.500 175.500 26.365 175.777 C 40.935 176.049, 41.323 176.001, 45.865 173.359 C 60.370 164.921, 84.389 142.712, 96.003 127 C 101.948 118.958, 107.997 107.989, 107.999 105.250 C 108 104.277, 101.234 104, 77.500 104 L 47 104 47.035 83.750 L 47.070 63.500 75.528 40.500 C 91.179 27.850, 103.988 17.163, 103.992 16.750 C 104.002 15.769, 51.473 15.974, 47.275 16.971 M 151.697 17.965 C 143.164 22.258, 130.732 32.268, 117.500 45.500 C 102.535 60.465, 93.173 72.566, 89.423 81.789 L 87.102 87.500 118.051 87.764 L 149 88.028 149 107.898 L 149 127.767 145.221 131.134 C 143.142 132.985, 130.053 143.725, 116.133 155 L 90.823 175.500 118.982 175.766 C 144.789 176.009, 147.498 175.873, 151.424 174.137 C 155.293 172.425, 157.162 170.069, 170.753 149.770 L 185.800 127.298 185.292 91.899 C 185.014 72.430, 184.496 47.500, 184.143 36.500 L 183.500 16.500 169.500 16.276 C 157.415 16.082, 154.980 16.313, 151.697 17.965" stroke="none" fill="#0c7d8d" fill-rule="evenodd"/></svg>